<?xml version="1.0" encoding="iso-8859-1"?>
<!-- Generator: Adobe Illustrator 16.0.0, SVG Export Plug-In . SVG Version: 6.00 Build 0)  -->
<!DOCTYPE svg PUBLIC "-//W3C//DTD SVG 1.1//EN" "http://www.w3.org/Graphics/SVG/1.1/DTD/svg11.dtd">
<svg version="1.1" id="Capa_1" xmlns="http://www.w3.org/2000/svg" xmlns:xlink="http://www.w3.org/1999/xlink" x="0px" y="0px"
	 width="97.75px" height="97.75px" viewBox="0 0 97.75 97.75" style="enable-background:new 0 0 97.75 97.75;" xml:space="preserve"
	>
<g>
	<g>
		<polygon points="54.716,44.397 56.831,44.397 57.355,35.888 54.191,35.888 		"/>
		<polygon points="22.889,63.516 31.407,63.516 34.095,54.33 20.029,54.33 		"/>
		<rect x="17.704" y="42.368" width="19.333" height="7.7"/>
		<path d="M48.875,0C21.883,0,0,21.882,0,48.875S21.883,97.75,48.875,97.75S97.75,75.868,97.75,48.875S75.867,0,48.875,0z
			 M46.289,67.164H8.043v-3.648h9.438l-2.859-9.187h-3.369V38.221h32.033v16.108h-3.785l-2.687,9.187h9.475V67.164z M46.462,34.172
			H8.223v-4.227h38.239V34.172z M54.664,68.379l-3.676-1.611c0.025-0.061,2.369-5.453,2.738-9.438l-3.625,0.654v-3.912l3.674-0.606
			V48.41H49.43v-4.013h2.045l-0.524-8.509h-0.659v-3.236h3.857v-3.179h3.236v3.179h3.895v3.236h-0.682l-0.523,8.509h1.539v4.013
			h-3.822v4.482l2.812-0.552v3.798l-2.817,0.438C57.693,61.417,54.789,68.093,54.664,68.379z M75.751,68.012
			c-3.319-5.271-3.125-13.531-3.103-14.232V33.344l-2.073,0.461v29.35l2.229-0.007v3.461l-8.185,0.904l-0.034-0.306v-4.037
			l2.548-0.006V34.57l-1.843,0.409v21.365c0,4.328-3.213,11.618-3.35,11.926l-3.144-1.395c0.851-1.917,3.054-7.544,3.054-10.532
			V32.218l12.53-2.848l2.646,3.178l-0.938,0.224l-0.001,21.102c-0.004,0.081-0.263,8.265,2.804,12.655l0.474,0.574
			C78.156,67.383,76.953,67.684,75.751,68.012z M89.062,53.283V57.3h-3.655v10.607h-4.013V57.299h-3.656v-4.017h3.656v-4.873h-4.302
			v-4.013h1.972l-0.785-8.254h-0.984v-3.67h4.372v-3h3.438v3h4.373v3.67h-1.098l-0.555,8.254h1.881v4.013h-4.301v4.873
			L89.062,53.283L89.062,53.283z"/>
		<polygon points="82.527,44.397 84.361,44.397 84.918,36.143 81.743,36.143 		"/>
	</g>
</g>
<g>
</g>
<g>
</g>
<g>
</g>
<g>
</g>
<g>
</g>
<g>
</g>
<g>
</g>
<g>
</g>
<g>
</g>
<g>
</g>
<g>
</g>
<g>
</g>
<g>
</g>
<g>
</g>
<g>
</g>
</svg>
