<?xml version="1.0" encoding="iso-8859-1"?>
<!-- Generator: Adobe Illustrator 16.0.0, SVG Export Plug-In . SVG Version: 6.00 Build 0)  -->
<!DOCTYPE svg PUBLIC "-//W3C//DTD SVG 1.1//EN" "http://www.w3.org/Graphics/SVG/1.1/DTD/svg11.dtd">
<svg version="1.1" id="Capa_1" xmlns="http://www.w3.org/2000/svg" xmlns:xlink="http://www.w3.org/1999/xlink" x="0px" y="0px"
	 width="98.434px" height="98.433px" viewBox="0 0 98.434 98.433" style="enable-background:new 0 0 98.434 98.433;"
	 xml:space="preserve">
<g>
	<g>
		<rect x="0.216" y="26.4" width="46.092" height="5.095"/>
		<path d="M37.918,55.792h4.563V36.375H3.868v19.416H7.93l3.446,11.073H0v4.397h46.1v-4.397H34.68L37.918,55.792z M11.645,41.375
			h23.302v9.281H11.645V41.375z M28.162,66.865H17.894l-3.447-11.073h16.954L28.162,66.865z"/>
		<path d="M63.354,53.396l-3.391,0.664v-5.403h4.607V43.82h-1.855l0.631-10.257h0.821v-3.9h-4.693v-3.832h-3.899v3.832h-4.651v3.9
			h0.794L52.35,43.82h-2.465v4.837h5.24v6.094l-4.43,0.73v4.717l4.369-0.789c-0.443,4.804-3.271,11.304-3.301,11.375l4.43,1.942
			c0.151-0.346,3.653-8.392,3.764-14.227l3.396-0.526V53.396L63.354,53.396z M58.807,43.82h-2.55l-0.632-10.257h3.812L58.807,43.82z
			"/>
		<path d="M82.02,55.244l0.002-25.437l1.131-0.271l-3.189-3.83l-15.104,3.433v29.08c0,3.601-2.658,10.384-3.682,12.694l3.791,1.681
			c0.164-0.371,4.036-9.158,4.036-14.375V32.467l2.222-0.493v34.469l-3.07,0.008v4.865l0.041,0.368l9.865-1.09v-4.172l-2.688,0.008
			V31.052l2.501-0.556v24.632c-0.028,0.846-0.264,10.803,3.738,17.156c1.447-0.397,2.898-0.758,4.355-1.096l-0.57-0.691
			C81.701,65.205,82.015,55.341,82.02,55.244z"/>
		<path d="M98.434,48.656v-4.837h-2.267l0.669-9.949h1.32v-4.424h-5.27V25.83H88.74v3.616h-5.27v4.424h1.188l0.947,9.949h-2.377
			v4.837h5.184v5.875h-4.405v4.842h4.405v12.785h4.838V59.373h4.406v-4.842H93.25v-5.875H98.434z M91.992,43.82h-2.213l-0.944-9.949
			h3.827L91.992,43.82z"/>
	</g>
</g>
<g>
</g>
<g>
</g>
<g>
</g>
<g>
</g>
<g>
</g>
<g>
</g>
<g>
</g>
<g>
</g>
<g>
</g>
<g>
</g>
<g>
</g>
<g>
</g>
<g>
</g>
<g>
</g>
<g>
</g>
</svg>
